<svg width="24" height="24" viewBox="0 0 24 24" fill="none" xmlns="http://www.w3.org/2000/svg">
    <path
        d="M12 21.9993C10.4491 22.0369 8.94653 21.458 7.82179 20.3895C6.69705 19.321 6.0419 17.8501 6 16.2993V6.12926C6.02883 5.00817 6.50064 3.94416 7.31216 3.17012C8.12368 2.39609 9.20879 1.97509 10.33 1.99926C11.4529 1.9724 12.5406 2.39221 13.3543 3.16653C14.168 3.94084 14.6412 5.00639 14.67 6.12926V16.3093C14.6284 16.9878 14.3295 17.625 13.8343 18.0908C13.3391 18.5566 12.6849 18.8159 12.005 18.8159C11.3251 18.8159 10.6709 18.5566 10.1757 18.0908C9.68047 17.625 9.38159 16.9878 9.34 16.3093V6.91926C9.34 6.65404 9.44536 6.39969 9.63289 6.21215C9.82043 6.02462 10.0748 5.91926 10.34 5.91926C10.6052 5.91926 10.8596 6.02462 11.0471 6.21215C11.2346 6.39969 11.34 6.65404 11.34 6.91926V16.3093C11.3599 16.4716 11.4386 16.621 11.5611 16.7294C11.6836 16.8377 11.8415 16.8976 12.005 16.8976C12.1685 16.8976 12.3264 16.8377 12.4489 16.7294C12.5714 16.621 12.6501 16.4716 12.67 16.3093V6.12926C12.6389 5.53767 12.3758 4.98221 11.9377 4.58343C11.4996 4.18466 10.9219 3.97475 10.33 3.99926C9.73979 3.97744 9.16467 4.18856 8.72876 4.58706C8.29285 4.98556 8.0311 5.53947 8 6.12926V16.2993C8.04163 17.3197 8.48597 18.282 9.23569 18.9755C9.98541 19.669 10.9794 20.0371 12 19.9993C13.0206 20.0371 14.0146 19.669 14.7643 18.9755C15.514 18.282 15.9584 17.3197 16 16.2993V6.12926C16 5.86404 16.1054 5.60969 16.2929 5.42215C16.4804 5.23462 16.7348 5.12926 17 5.12926C17.2652 5.12926 17.5196 5.23462 17.7071 5.42215C17.8946 5.60969 18 5.86404 18 6.12926V16.2993C17.9581 17.8501 17.303 19.321 16.1782 20.3895C15.0535 21.458 13.5509 22.0369 12 21.9993Z"
        fill="white" />
</svg>