<svg width="24" height="24" viewBox="0 0 24 24" fill="none" xmlns="http://www.w3.org/2000/svg">
    <path
        d="M11.9996 1.99991C10.0218 1.99991 8.08843 2.5864 6.44394 3.68522C4.79944 4.78403 3.51772 6.34582 2.76084 8.17308C2.00397 10.0003 1.80593 12.011 2.19179 13.9508C2.57764 15.8906 3.53005 17.6725 4.92857 19.071C6.3271 20.4695 8.10892 21.4219 10.0487 21.8078C11.9885 22.1936 13.9992 21.9956 15.8265 21.2387C17.6537 20.4818 19.2155 19.2001 20.3143 17.5556C21.4131 15.9111 21.9996 13.9777 21.9996 11.9999C21.9996 10.6867 21.741 9.38633 21.2384 8.17308C20.7359 6.95982 19.9993 5.85743 19.0707 4.92884C18.1421 4.00026 17.0397 3.26366 15.8265 2.76112C14.6132 2.25857 13.3129 1.99991 11.9996 1.99991ZM16.2996 9.60991L11.7296 15.6099C11.6365 15.7309 11.5168 15.829 11.3799 15.8966C11.243 15.9642 11.0924 15.9995 10.9396 15.9999C10.7877 16.0007 10.6377 15.9669 10.5008 15.9011C10.3639 15.8352 10.2438 15.7391 10.1496 15.6199L7.70964 12.5099C7.62887 12.4062 7.56934 12.2875 7.53442 12.1608C7.49951 12.034 7.4899 11.9016 7.50615 11.7712C7.5224 11.6407 7.56419 11.5147 7.62913 11.4004C7.69407 11.2861 7.78089 11.1857 7.88464 11.1049C8.09416 10.9418 8.35989 10.8686 8.62338 10.9014C8.75385 10.9177 8.87984 10.9595 8.99415 11.0244C9.10847 11.0893 9.20887 11.1762 9.28964 11.2799L10.9196 13.3599L14.6996 8.35991C14.7797 8.25485 14.8798 8.1666 14.994 8.1002C15.1082 8.03379 15.2344 7.99053 15.3653 7.97289C15.4962 7.95525 15.6293 7.96357 15.7571 7.99737C15.8848 8.03118 16.0046 8.08981 16.1096 8.16991C16.2147 8.25002 16.3029 8.35003 16.3693 8.46424C16.4358 8.57846 16.479 8.70463 16.4967 8.83556C16.5143 8.96649 16.506 9.09962 16.4722 9.22733C16.4384 9.35505 16.3797 9.47485 16.2996 9.57991V9.60991Z"
        fill="#1BAA75" />
</svg>