<svg width="20" height="20" viewBox="0 0 20 20" fill="none" xmlns="http://www.w3.org/2000/svg">
    <path
        d="M19 4.00138H14V2.33138C13.9765 1.6912 13.7002 1.08644 13.2316 0.649671C12.7629 0.212905 12.1402 -0.0202285 11.5 0.00137844H8.5C7.85975 -0.0202285 7.23706 0.212905 6.76843 0.649671C6.2998 1.08644 6.02346 1.6912 6 2.33138V4.00138H1C0.734784 4.00138 0.48043 4.10674 0.292893 4.29427C0.105357 4.48181 0 4.73616 0 5.00138C0 5.26659 0.105357 5.52095 0.292893 5.70849C0.48043 5.89602 0.734784 6.00138 1 6.00138H2V17.0014C2 17.797 2.31607 18.5601 2.87868 19.1227C3.44129 19.6853 4.20435 20.0014 5 20.0014H15C15.7956 20.0014 16.5587 19.6853 17.1213 19.1227C17.6839 18.5601 18 17.797 18 17.0014V6.00138H19C19.2652 6.00138 19.5196 5.89602 19.7071 5.70849C19.8946 5.52095 20 5.26659 20 5.00138C20 4.73616 19.8946 4.48181 19.7071 4.29427C19.5196 4.10674 19.2652 4.00138 19 4.00138ZM8 2.33138C8 2.17138 8.21 2.00138 8.5 2.00138H11.5C11.79 2.00138 12 2.17138 12 2.33138V4.00138H8V2.33138ZM16 17.0014C16 17.2666 15.8946 17.521 15.7071 17.7085C15.5196 17.896 15.2652 18.0014 15 18.0014H5C4.73478 18.0014 4.48043 17.896 4.29289 17.7085C4.10536 17.521 4 17.2666 4 17.0014V6.00138H16V17.0014Z"
        fill="#24334B" />
    <path
        d="M7 15.0015C7.26522 15.0015 7.51957 14.8961 7.70711 14.7086C7.89464 14.521 8 14.2667 8 14.0015V10.0015C8 9.73625 7.89464 9.48189 7.70711 9.29436C7.51957 9.10682 7.26522 9.00146 7 9.00146C6.73478 9.00146 6.48043 9.10682 6.29289 9.29436C6.10536 9.48189 6 9.73625 6 10.0015V14.0015C6 14.2667 6.10536 14.521 6.29289 14.7086C6.48043 14.8961 6.73478 15.0015 7 15.0015ZM13 15.0015C13.2652 15.0015 13.5196 14.8961 13.7071 14.7086C13.8946 14.521 14 14.2667 14 14.0015V10.0015C14 9.73625 13.8946 9.48189 13.7071 9.29436C13.5196 9.10682 13.2652 9.00146 13 9.00146C12.7348 9.00146 12.4804 9.10682 12.2929 9.29436C12.1054 9.48189 12 9.73625 12 10.0015V14.0015C12 14.2667 12.1054 14.521 12.2929 14.7086C12.4804 14.8961 12.7348 15.0015 13 15.0015Z"
        fill="#24334B" />
</svg>