<svg width="24" height="24" viewBox="0 0 24 24" fill="none" xmlns="http://www.w3.org/2000/svg">
    <path
        d="M9.46881 17.3362C11.2147 17.3358 12.9102 16.7514 14.2854 15.676L18.6093 19.9996L20.0001 18.6089L15.6762 14.2853C16.7523 12.9099 17.3371 11.2141 17.3375 9.4679C17.3375 5.12952 13.8074 1.59961 9.46881 1.59961C5.1302 1.59961 1.6001 5.12952 1.6001 9.4679C1.6001 13.8063 5.1302 17.3362 9.46881 17.3362ZM9.46881 3.56668C12.7235 3.56668 15.3703 6.21338 15.3703 9.4679C15.3703 12.7224 12.7235 15.3691 9.46881 15.3691C6.21411 15.3691 3.56728 12.7224 3.56728 9.4679C3.56728 6.21338 6.21411 3.56668 9.46881 3.56668Z"
        fill="#1BAA75" />
</svg>