<svg width="44" height="44" viewBox="0 0 44 44" fill="none" xmlns="http://www.w3.org/2000/svg">
    <path
        d="M30.5201 25.2097L28.7201 23.3996V18.9396C28.744 17.2835 28.1679 15.6746 27.0982 14.41C26.0285 13.1454 24.5373 12.3106 22.9001 12.0597C21.9499 11.9345 20.9839 12.0135 20.0667 12.2912C19.1494 12.569 18.3019 13.0392 17.5808 13.6704C16.8597 14.3017 16.2814 15.0794 15.8847 15.9518C15.4879 16.8243 15.2818 17.7713 15.2801 18.7296V23.3996L13.4801 25.2097C13.254 25.4395 13.1007 25.7309 13.0393 26.0475C12.9779 26.364 13.0112 26.6916 13.135 26.9893C13.2587 27.287 13.4675 27.5416 13.7352 27.7213C14.0029 27.901 14.3177 27.9978 14.6401 27.9997H18.0001V28.3397C18.0468 29.3549 18.494 30.3101 19.2438 30.9962C19.9936 31.6822 20.9847 32.0431 22.0001 31.9997C23.0154 32.0431 24.0066 31.6822 24.7563 30.9962C25.5061 30.3101 25.9534 29.3549 26.0001 28.3397V27.9997H29.3601C29.6825 27.9978 29.9972 27.901 30.2649 27.7213C30.5326 27.5416 30.7414 27.287 30.8652 26.9893C30.989 26.6916 31.0223 26.364 30.9609 26.0475C30.8995 25.7309 30.7462 25.4395 30.5201 25.2097ZM24.0001 28.3397C23.9446 28.8207 23.7057 29.2617 23.3331 29.5709C22.9606 29.8802 22.4831 30.0337 22.0001 29.9997C21.5171 30.0337 21.0396 29.8802 20.667 29.5709C20.2944 29.2617 20.0555 28.8207 20.0001 28.3397V27.9997H24.0001V28.3397ZM15.5101 25.9997L16.6901 24.8196C16.8772 24.6336 17.0257 24.4123 17.127 24.1686C17.2283 23.9249 17.2803 23.6636 17.2801 23.3996V18.7296C17.2806 18.0551 17.4255 17.3884 17.7049 16.7744C17.9843 16.1603 18.3918 15.6132 18.9001 15.1697C19.4015 14.7153 19.9956 14.3754 20.6414 14.1734C21.2872 13.9714 21.9691 13.9121 22.6401 13.9997C23.7966 14.1874 24.8463 14.7867 25.596 15.687C26.3457 16.5874 26.7449 17.7283 26.7201 18.8996V23.3996C26.7186 23.6629 26.769 23.9238 26.8685 24.1675C26.9681 24.4111 27.1147 24.6328 27.3001 24.8196L28.4901 25.9997H15.5101Z"
        fill="#24334B" />
</svg>