<svg width="24" height="24" viewBox="0 0 24 24" fill="none" xmlns="http://www.w3.org/2000/svg">
    <path
        d="M17.1667 6.99992V10.3333V10.7499M15.1143 18.5435C14.0049 18.8789 12.5324 19.0833 10.9167 19.0833C7.46496 19.0833 4.66675 18.1505 4.66675 16.9999V13.6666V10.3333V6.99992"
        stroke="white" stroke-width="2" stroke-linecap="round" stroke-linejoin="round" />
    <path
        d="M17.1667 6.9999C17.1667 8.15048 14.3685 9.08323 10.9167 9.08323C7.46496 9.08323 4.66675 8.15048 4.66675 6.9999C4.66675 5.84931 7.46496 4.91656 10.9167 4.91656C14.3685 4.91656 17.1667 5.84931 17.1667 6.9999Z"
        stroke="white" stroke-width="2" stroke-linecap="round" stroke-linejoin="round" />
    <path
        d="M4.66675 12C4.66675 13.1506 7.46496 14.0834 10.9167 14.0834C12.0652 14.0834 12.5546 13.9801 13.4794 13.7999"
        stroke="white" stroke-width="2" stroke-linecap="round" stroke-linejoin="round" />
    <circle cx="18.0785" cy="15.3333" r="2.08333" stroke="white" stroke-width="2"
        stroke-linecap="round" stroke-linejoin="round" />
    <path d="M19.7451 16.9999L21.8285 19.0833" stroke="white" stroke-width="2"
        stroke-linecap="round" stroke-linejoin="round" />
</svg>